<svg width="776" height="394" viewBox="0 0 776 394" fill="none" xmlns="http://www.w3.org/2000/svg">
<g id="Group 1">
<line id="n1" x1="162.633" y1="337.66" x2="337.633" y2="148.66" stroke="#008080"
            stroke-width="5px"/>
<line id="n2" x1="338.434" y1="148.752" x2="446.434" y2="337.752" stroke="#008080"
            stroke-width="5px"/>
<line id="n3" x1="446.159" y1="338.474" x2="282.159" y2="393.474" stroke="#008080"
            stroke-width="5px"/>
<line id="n4" x1="281.522" y1="393.146" x2="219.522" y2="190.146" stroke="#008080"
            stroke-width="5px"/>
<line id="n5" x1="220.042" y1="189.502" x2="533.035" y2="215.584" stroke="#008080"
            stroke-width="5px"/>
<line id="n6" x1="533.288" y1="216.409" x2="282.288" y2="393.409" stroke="#008080"
            stroke-width="5px"/>
<line id="n7" x1="376.285" y1="106.589" x2="533.285" y2="215.589" stroke="#008080"
            stroke-width="5px"/>
<line id="n8" x1="376.122" y1="106.515" x2="594.122" y2="161.515" stroke="#008080"
            stroke-width="5px"/>
<line id="n9" x1="594.483" y1="162.131" x2="543.483" y2="350.131" stroke="#008080"
            stroke-width="5px"/>
<line id="n10" x1="542.829" y1="350.47" x2="325.829" y2="271.47" stroke="#008080"
            stroke-width="5px"/>
<line id="n11" x1="326.19" y1="271.462" x2="163.19" y2="338.462" stroke="#008080"
            stroke-width="5px"/>
<line id="n12" x1="162.501" y1="337.964" x2="177.573" y2="128.969" stroke="#008080"
            stroke-width="5px"/>
<line id="n13" x1="178.319" y1="129.385" x2="51.3186" y2="234.385" stroke="#008080"
            stroke-width="5px"/>
<line id="n14" x1="51.3402" y1="233.634" x2="163.34" y2="337.634" stroke="#008080"
            stroke-width="5px"/>
<line id="n15" x1="163.1" y1="338.49" x2="1.0998" y2="371.49" stroke="#008080"
            stroke-width="5px"/>
<line id="n16" x1="0.530304" y1="370.829" x2="50.5303" y2="233.829" stroke="#008080"
            stroke-width="5px"/>
<line id="n17" x1="50.5116" y1="233.893" x2="101.512" y2="0.893079" stroke="#008080"
            stroke-width="5px"/>
<line id="n18" x1="102.43" y1="0.744731" x2="178.43" y2="128.745" stroke="#008080"
            stroke-width="5px"/>
<line id="n19" x1="178.062" y1="128.504" x2="338.062" y2="148.504" stroke="#008080"
            stroke-width="5px"/>
<line id="n20" x1="338.164" y1="149.472" x2="220.164" y2="190.472" stroke="#008080"
            stroke-width="5px"/>
<line id="n21" x1="220.304" y1="189.603" x2="326.304" y2="270.603" stroke="#008080"
            stroke-width="5px"/>
<line id="n22" x1="325.872" y1="270.517" x2="532.872" y2="215.517" stroke="#008080"
            stroke-width="5px"/>
<line id="n23" x1="533.499" y1="215.963" x2="543.499" y2="349.963" stroke="#008080"
            stroke-width="5px"/>
<line id="n24" x1="375.875" y1="106.516" x2="663.805" y2="32.2441" stroke="#008080"
            stroke-width="5px"/>
<line id="n25" x1="664.439" y1="33.2385" x2="594.439" y2="162.238" stroke="#008080"
            stroke-width="5px"/>
<line id="n26" x1="593.926" y1="161.505" x2="774.926" y2="134.505" stroke="#008080"
            stroke-width="5px"/>
<line id="n27" x1="775.471" y1="135.167" x2="732.471" y2="256.167" stroke="#008080"
            stroke-width="5px"/>
<line id="n28" x1="731.719" y1="256.413" x2="593.719" y2="162.413" stroke="#008080"
            stroke-width="5px"/>
<line id="n29" x1="594.482" y1="161.867" x2="638.482" y2="320.867" stroke="#008080"
            stroke-width="5px"/>
<line id="n30" x1="637.716" y1="320.589" x2="731.716" y2="255.589" stroke="#008080"
            stroke-width="5px"/>
</g>
</svg>
